<svg xmlns="http://www.w3.org/2000/svg" width="32" height="32" viewBox="0 0 32 32"><defs><style>.a,.d{fill:none;}.a{stroke:#f5f5f5;stroke-miterlimit:10;stroke-width:1.5px;}.b{fill:#f5f5f5;}.c{stroke:none;}</style></defs><g class="a"><circle class="c" cx="16" cy="16" r="16"/><circle class="d" cx="16" cy="16" r="15.25"/></g><path class="b" d="M9.793,13.949H4.155A4.16,4.16,0,0,1,0,9.793V4.155A4.16,4.16,0,0,1,4.155,0H9.793a4.16,4.16,0,0,1,4.155,4.155V9.793A4.16,4.16,0,0,1,9.793,13.949ZM4.155,1.4A2.755,2.755,0,0,0,1.4,4.155V9.793a2.755,2.755,0,0,0,2.752,2.752H9.793a2.755,2.755,0,0,0,2.752-2.752V4.155A2.755,2.755,0,0,0,9.793,1.4Zm2.819,9.179a3.608,3.608,0,1,1,3.608-3.607A3.612,3.612,0,0,1,6.974,10.582Zm0-5.812a2.2,2.2,0,1,0,2.2,2.2A2.207,2.207,0,0,0,6.974,4.77Zm3.614-.512a.865.865,0,1,1,.865-.864A.865.865,0,0,1,10.589,4.258Z" transform="translate(9.026 9.026)"/></svg>