<svg xmlns="http://www.w3.org/2000/svg" width="75.241" height="52" viewBox="0 0 75.241 52"><defs><style>.a{fill:none;stroke:#fff;stroke-width:2px;}</style></defs><g transform="translate(2.194 -1.613)"><path class="a" d="M33.871,52.613H2.419v-50H33.871Zm31.445,0H33.871v-50H65.316Z" transform="translate(1.56)"/><path class="a" d="M40.806,3V3Z" transform="translate(31.241 1.337)"/><path class="a" d="M.806,49.552S.806,3,.806,3V49.552Z" transform="translate(-2 1.337)"/><path class="a" d="M5,10.806H5Z" transform="translate(3.703 6.462)"/><path class="a" d="M5,14.806H5Z" transform="translate(3.703 9.358)"/><path class="a" d="M5,6.806H5Z" transform="translate(3.703 3.565)"/><path class="a" d="M5,18.806H5Z" transform="translate(3.703 12.255)"/><path class="a" d="M5,22.806H5Z" transform="translate(3.703 15.151)"/><path class="a" d="M5,26.806H5Z" transform="translate(3.703 18.048)"/><path class="a" d="M23,10.806h0Z" transform="translate(16.737 6.462)"/><path class="a" d="M23,14.806h0Z" transform="translate(16.737 9.358)"/><path class="a" d="M23,6.806h0Z" transform="translate(16.737 3.565)"/><path class="a" d="M23,18.806h0Z" transform="translate(16.737 12.255)"/><path class="a" d="M23,22.806h0Z" transform="translate(16.737 15.151)"/><path class="a" d="M23,26.806h0Z" transform="translate(16.737 18.048)"/></g></svg>