<svg xmlns="http://www.w3.org/2000/svg" width="33.5" height="33.5" viewBox="0 0 33.5 33.5"><defs><style>.a{fill:none;stroke:#f5f5f5;stroke-width:1.5px;}.b{fill:#f5f5f5;}</style></defs><g transform="translate(0.75 0.75)"><circle class="a" cx="16" cy="16" r="16" transform="translate(0)"/><path class="b" d="M13.128,1.263a5.4,5.4,0,0,1-1.547.424A2.7,2.7,0,0,0,12.765.2,5.383,5.383,0,0,1,11.054.85a2.695,2.695,0,0,0-4.66,1.842,2.723,2.723,0,0,0,.07.614A7.646,7.646,0,0,1,.914.493a2.7,2.7,0,0,0,.833,3.595,2.671,2.671,0,0,1-1.22-.337v.034a2.694,2.694,0,0,0,2.16,2.64,2.689,2.689,0,0,1-.71.094,2.649,2.649,0,0,1-.507-.049A2.7,2.7,0,0,0,3.988,8.342,5.411,5.411,0,0,1,.643,9.494,5.429,5.429,0,0,1,0,9.457a7.622,7.622,0,0,0,4.129,1.21,7.61,7.61,0,0,0,7.663-7.661c0-.117,0-.232-.008-.348a5.474,5.474,0,0,0,1.344-1.394Z" transform="translate(9.436 10.667)"/></g></svg>