<svg xmlns="http://www.w3.org/2000/svg" width="17.231" height="14" viewBox="0 0 17.231 14"><defs><style>.a{fill:#fff;}</style></defs><g transform="translate(-9.436 -10.667)"><path class="a" d="M17.231,1.657a7.091,7.091,0,0,1-2.03.557A3.545,3.545,0,0,0,16.754.259a7.065,7.065,0,0,1-2.245.857A3.537,3.537,0,0,0,8.393,3.534a3.574,3.574,0,0,0,.092.806A10.035,10.035,0,0,1,1.2.647,3.538,3.538,0,0,0,2.294,5.365a3.506,3.506,0,0,1-1.6-.442v.045A3.536,3.536,0,0,0,3.529,8.434a3.529,3.529,0,0,1-.932.124,3.477,3.477,0,0,1-.665-.064,3.54,3.54,0,0,0,3.3,2.455A7.1,7.1,0,0,1,.843,12.461,7.126,7.126,0,0,1,0,12.412,10,10,0,0,0,5.419,14,9.988,9.988,0,0,0,15.477,3.944c0-.154,0-.305-.01-.457a7.185,7.185,0,0,0,1.764-1.829Z" transform="translate(9.436 10.667)"/></g></svg>