<svg xmlns="http://www.w3.org/2000/svg" width="126" height="109.826" viewBox="0 0 126 109.826"><defs><style>.a{fill:#fff;}</style></defs><path class="a" d="M3.156,321.69l5.3,13.27,5.368-13.27H16.98L8.386,342.264,0,321.69Zm24.168,0v19.145h-2.88V321.69Zm20.228,2.719H39.88v4.608h7.442v2.719H39.88v6.4h7.672v2.719H37V321.69H47.552Zm8.87,16.427V320.4l13.962,14.607V321.69h2.88v20.3L59.325,327.45v13.409h-2.9Zm26.518,0V320.4L96.9,335.007V321.69h2.88v20.3L85.82,327.45v13.409H82.94Zm37.9-4.654h-8.2l-2.143,4.654h-3.11l9.469-20.343L126,340.836h-3.156Zm-1.175-2.7-2.834-6.5-2.972,6.5Z" transform="translate(0 -246.583)"/><g transform="translate(6.105 100.104)"><path class="a" d="M26.5,443.693v-8.617h1.8a6.86,6.86,0,0,1,2.05.253,3.982,3.982,0,0,1,1.474.852,4.452,4.452,0,0,1-.046,6.4,3.945,3.945,0,0,1-1.451.852,6.7,6.7,0,0,1-2.027.23H26.5Zm1.29-1.221h.576a5.178,5.178,0,0,0,1.451-.184,3.294,3.294,0,0,0,1.06-.622,2.91,2.91,0,0,0,.968-2.281,3.055,3.055,0,0,0-.945-2.3,3.568,3.568,0,0,0-2.511-.783h-.576v6.174Zm11.727-7.4v8.617h-1.29v-8.617Zm10.367,1.29-1.06.622a1.938,1.938,0,0,0-.553-.668,1.31,1.31,0,0,0-.714-.184,1.286,1.286,0,0,0-.9.3.984.984,0,0,0-.346.76c0,.415.323.76.945,1.014l.852.346a3.629,3.629,0,0,1,1.544,1.037,2.336,2.336,0,0,1,.484,1.5,2.6,2.6,0,0,1-.783,1.958,2.692,2.692,0,0,1-1.981.783,2.664,2.664,0,0,1-1.843-.668,2.988,2.988,0,0,1-.9-1.866l1.313-.3a2.3,2.3,0,0,0,.323,1.06,1.382,1.382,0,0,0,1.175.553,1.355,1.355,0,0,0,1.014-.415,1.389,1.389,0,0,0,.392-1.037,1.485,1.485,0,0,0-.069-.461,1.281,1.281,0,0,0-.207-.392,1.4,1.4,0,0,0-.392-.323,6,6,0,0,0-.553-.3l-.829-.346c-1.175-.507-1.774-1.221-1.774-2.189a2.056,2.056,0,0,1,.737-1.613,2.663,2.663,0,0,1,1.843-.668A2.7,2.7,0,0,1,49.884,436.366Zm7.764-.069v7.4H56.335v-7.4H54.354v-1.221h5.253V436.3Zm9.469,3.709,2.673,3.663H68.2l-2.465-3.525H65.5v3.525h-1.29v-8.593h1.521a3.761,3.761,0,0,1,2.465.645,2.381,2.381,0,0,1,.829,1.889,2.476,2.476,0,0,1-.53,1.567A2.266,2.266,0,0,1,67.118,440.006Zm-1.613-.968h.415c1.221,0,1.843-.461,1.843-1.405q0-1.313-1.8-1.313H65.5Zm10.3-3.963v8.617h-1.29v-8.617Zm5.506,8.617v-8.617H82.6a5.555,5.555,0,0,1,1.382.138,1.886,1.886,0,0,1,.875.461,2.427,2.427,0,0,1,.576.829,2.575,2.575,0,0,1,.207,1.014,2.009,2.009,0,0,1-.714,1.567,2.065,2.065,0,0,1,1.083.829,2.458,2.458,0,0,1-.323,3.064,2.36,2.36,0,0,1-.968.6,5.324,5.324,0,0,1-1.474.161H81.309Zm1.29-4.93h.415a1.533,1.533,0,0,0,1.06-.323,1.218,1.218,0,0,0,.346-.945,1.165,1.165,0,0,0-.346-.921,1.485,1.485,0,0,0-1.014-.323H82.6Zm0,3.709h.806a1.964,1.964,0,0,0,1.29-.346,1.188,1.188,0,0,0,.438-.945,1.241,1.241,0,0,0-.415-.945,2.157,2.157,0,0,0-1.451-.369H82.6Zm10.183-7.4v5.184a2.687,2.687,0,0,0,.369,1.613,1.816,1.816,0,0,0,1.521.737,1.759,1.759,0,0,0,1.521-.737,2.866,2.866,0,0,0,.369-1.613v-5.184h1.29v5.552A3.04,3.04,0,0,1,97,442.863a3.183,3.183,0,0,1-2.35.991,3.145,3.145,0,0,1-3.179-3.225v-5.552Zm12.948,1.221v7.4h-1.29v-7.4h-1.981v-1.221h5.253V436.3Zm7.856-1.221v8.617H112.3v-8.617Zm5.069,4.262a4.2,4.2,0,0,1,1.336-3.133,4.368,4.368,0,0,1,3.179-1.313,4.484,4.484,0,0,1,4.47,4.47,4.214,4.214,0,0,1-1.336,3.156,4.414,4.414,0,0,1-3.225,1.29,4.48,4.48,0,0,1-3-1.152A4.2,4.2,0,0,1,118.655,439.338Zm1.313.023a3.127,3.127,0,0,0,.968,2.35,3.049,3.049,0,0,0,2.212.922,3.113,3.113,0,0,0,2.281-.945,3.144,3.144,0,0,0,.922-2.3,3.108,3.108,0,0,0-.922-2.3,3.025,3.025,0,0,0-2.258-.945,3.113,3.113,0,0,0-2.281.945,3.021,3.021,0,0,0-.922,2.281Zm12.741,4.331V434.5l6.29,6.566v-5.99h1.29v9.146L134,437.679v6.036h-1.29Z" transform="translate(-26.5 -434.5)"/></g><g transform="translate(27.025)"><path class="a" d="M178.353,17.786l-2.442,2.442a22.768,22.768,0,0,1-5.99,21.68l-16.1,16.1L121.608,25.827l7.856-7.856,6.451-6.451,1.82-1.82a22.753,22.753,0,0,1,33.913,1.912l2.166-2.166a22.069,22.069,0,0,0-1.728-1.889,25.836,25.836,0,0,0-36.517,0l-1.82,1.82L127.3,15.828l-10,10,36.517,36.517L172.063,44.1A25.617,25.617,0,0,0,179.62,25.85a25.357,25.357,0,0,0-1.267-8.064Z" transform="translate(-117.3)"/><path class="a" d="M0,0H3.041V12.625H0Z" transform="matrix(0.707, -0.707, 0.707, 0.707, 1.08, 2.605)"/><path class="a" d="M242.058,1.9l-9.308,9.308-6.635,6.635L208.767,35.191,190.843,17.267,188.7,19.433,208.767,39.5l18.661-18.661L234.34,13.9,244.2,4.066Z" transform="translate(-172.25 -1.462)"/></g></svg>